<?xml version="1.0" standalone="no"?>
<!DOCTYPE svg PUBLIC "-//W3C//DTD SVG 20010904//EN"
 "http://www.w3.org/TR/2001/REC-SVG-20010904/DTD/svg10.dtd">
<svg version="1.0" xmlns="http://www.w3.org/2000/svg"
 width="45.000000pt" height="45.000000pt" viewBox="0 0 515.000000 640.000000"
 preserveAspectRatio="xMidYMid meet">

<g transform="translate(0.000000,640.000000) scale(0.100000,-0.100000)"
fill="#000000" stroke="none">
<path d="M454 6387 c-3 -8 69 -261 159 -561 l164 -546 -66 -47 c-107 -76 -301
-277 -340 -353 -19 -36 -55 -87 -81 -115 -275 -295 -373 -723 -205 -897 l36
-36 -4 -234 c-3 -177 -8 -250 -21 -303 -15 -59 -16 -82 -7 -145 15 -101 60
-192 112 -227 21 -14 39 -27 39 -29 0 -2 -20 -22 -45 -45 -83 -76 -118 -195
-80 -268 38 -74 134 -111 247 -95 60 9 65 8 116 -23 30 -17 81 -41 114 -52 32
-11 74 -33 93 -50 29 -25 129 -71 155 -71 6 0 10 -35 10 -77 0 -159 21 -583
35 -738 36 -382 87 -587 189 -760 53 -92 57 -122 21 -192 -20 -39 -23 -54 -16
-79 l9 -31 -107 -13 c-144 -16 -374 -56 -438 -75 -28 -9 -67 -26 -85 -38 -199
-135 429 -238 1682 -277 1327 -42 2809 53 2984 191 81 64 -46 130 -326 170
-49 7 -88 17 -88 21 0 4 6 8 13 8 33 0 159 73 215 125 75 69 126 166 142 268
28 182 -66 374 -218 445 -49 23 -71 27 -157 29 l-100 1 -7 94 c-28 381 -137
832 -297 1233 -66 164 -178 398 -237 492 -59 96 -83 151 -139 328 -49 155 -92
255 -126 291 -23 25 -45 37 -120 64 l-56 20 -7 138 c-14 290 -60 633 -120 897
-52 226 -63 256 -109 279 -34 16 -37 20 -23 35 30 34 29 65 -9 167 -56 152
-148 337 -180 362 -35 28 -84 28 -119 1 l-28 -22 31 61 c37 72 38 95 10 142
-50 82 -310 310 -370 325 -28 7 -81 -14 -95 -37 -4 -6 -24 -59 -45 -117 -21
-58 -38 -101 -38 -95 -1 6 8 60 19 120 27 149 26 185 -5 216 -47 48 -310 119
-492 134 l-82 7 -34 -34 -35 -35 -7 -164 c-4 -91 -11 -156 -15 -145 -4 11 -13
79 -20 150 -21 213 -33 226 -184 199 -121 -22 -280 -74 -395 -130 -108 -53
-141 -81 -141 -121 0 -15 27 -149 59 -298 33 -148 58 -271 56 -273 -4 -4 -15
8 -420 463 -186 209 -344 381 -352 383 -7 2 -16 -3 -19 -11z m189 -250 c9 -18
17 -42 17 -55 0 -31 -21 -111 -30 -117 -4 -2 -26 59 -50 137 -23 78 -45 149
-48 157 -8 24 90 -86 111 -122z m165 -181 c26 -34 29 -86 7 -142 -43 -117 -85
-206 -89 -194 -28 82 -66 222 -66 241 0 13 12 65 27 114 l27 90 36 -40 c20
-22 46 -53 58 -69z m192 -234 c12 -44 -3 -115 -41 -196 -50 -107 -127 -247
-132 -239 -2 4 -17 50 -32 102 -36 125 -32 173 29 313 25 58 49 121 53 139 l6
33 54 -59 c29 -32 57 -74 63 -93z m190 -200 c17 -41 11 -87 -21 -150 -53 -106
-185 -202 -279 -202 -25 0 -30 4 -30 25 0 14 33 90 73 168 84 161 117 243 117
290 l1 32 65 -70 c36 -38 69 -80 74 -93z m100 -116 c0 -7 -20 -32 -45 -56 -25
-24 -45 -42 -45 -39 0 3 9 22 20 44 11 21 23 55 26 74 l7 35 18 -23 c11 -13
19 -29 19 -35z m634 43 c478 -42 889 -257 1200 -629 161 -192 304 -459 371
-696 38 -135 74 -294 66 -294 -19 0 -124 118 -147 166 -28 57 -31 59 -53 45
-30 -19 31 -123 120 -206 56 -51 186 -125 221 -125 24 0 66 -38 93 -84 35 -59
155 -431 155 -479 0 -85 -67 -154 -192 -199 -56 -20 -80 -23 -228 -22 -145 0
-177 4 -260 26 -52 14 -98 24 -102 21 -5 -2 -8 -12 -8 -22 0 -15 16 -23 78
-39 345 -91 660 -27 742 152 l18 39 25 -40 c37 -59 148 -283 197 -397 129
-305 235 -662 289 -976 39 -230 46 -321 46 -605 -1 -283 -10 -393 -51 -590
-39 -189 -161 -313 -338 -346 -36 -6 -193 -9 -419 -7 -429 4 -407 -2 -546 138
-105 104 -142 124 -233 123 -38 -1 -68 3 -68 8 0 4 -14 25 -32 45 -38 43 -32
62 28 82 82 28 202 -12 291 -97 27 -25 88 -90 137 -144 115 -128 137 -139 269
-135 94 3 102 4 102 23 0 19 -8 20 -113 25 l-113 5 -152 157 c-163 168 -211
202 -311 218 -28 4 -70 5 -94 0 l-42 -7 0 66 c0 190 94 349 255 432 84 44 125
57 219 73 59 10 71 15 71 32 0 17 -6 19 -55 17 -30 -2 -86 -12 -125 -24 -266
-80 -413 -275 -415 -549 0 -50 -6 -82 -15 -94 -24 -32 -17 -63 22 -107 l37
-41 -33 -25 c-35 -28 -61 -77 -61 -116 0 -12 9 -40 20 -62 11 -21 19 -40 17
-41 -1 -1 -85 2 -187 7 -177 9 -322 27 -402 49 l-38 11 -2 587 c-3 579 -3 587
-23 587 -20 0 -20 -8 -23 -599 -2 -540 -4 -601 -19 -618 -30 -34 -71 -23 -258
73 -135 68 -194 93 -234 98 -30 3 -56 11 -58 17 -2 6 6 23 18 38 20 25 27 28
65 23 46 -5 152 -51 225 -98 25 -16 51 -29 56 -29 21 0 22 30 1 49 -35 33
-213 119 -261 126 l-45 7 -7 52 c-4 28 -29 119 -56 203 -54 166 -91 330 -109
480 -6 54 -14 117 -16 141 -4 33 -9 42 -25 42 -17 0 -19 -7 -19 -57 1 -142 57
-424 126 -628 45 -136 62 -230 45 -254 -14 -21 -75 22 -176 124 -282 283 -411
719 -432 1455 l-6 236 109 -9 c268 -23 605 43 847 165 93 46 124 66 269 169
113 81 272 165 378 199 145 47 287 57 478 34 48 -6 52 -5 52 14 0 26 -16 31
-135 41 -161 14 -347 -13 -481 -69 -66 -27 -31 0 56 44 86 44 154 65 232 74
55 6 63 10 66 30 3 20 -1 22 -36 22 -55 0 -186 -35 -261 -70 -92 -43 -182
-106 -301 -210 -289 -253 -600 -379 -978 -397 -185 -8 -421 22 -457 59 -7 7
-2 8 14 3 49 -15 332 -9 424 9 96 18 206 55 277 91 25 13 76 33 114 45 303 94
480 342 504 705 13 209 -16 467 -78 674 -10 35 -16 60 -11 55 4 -5 33 -42 65
-82 128 -159 281 -234 432 -210 174 27 306 185 356 425 29 142 21 386 -16 522
-76 271 -233 411 -463 411 -171 0 -382 -83 -472 -185 -19 -22 -48 -69 -65
-105 -29 -61 -31 -72 -31 -182 0 -65 0 -118 -1 -118 0 0 -24 39 -53 86 -170
277 -418 435 -746 474 -226 27 -461 -34 -591 -153 l-57 -52 6 33 c9 46 68 131
118 171 55 44 139 86 219 108 52 15 101 18 250 17 165 -1 195 -3 281 -26 177
-48 345 -148 456 -272 35 -40 57 -57 67 -53 30 12 16 38 -56 110 -157 157
-340 248 -568 282 -52 8 -102 15 -110 15 -8 0 17 17 55 38 121 64 175 108 245
198 16 21 262 58 410 63 25 0 99 -4 164 -10z m-1118 -266 c6 -30 5 -31 -37
-38 -24 -4 -61 -14 -83 -21 -21 -8 -41 -13 -42 -11 -2 2 29 29 68 60 40 31 76
53 80 49 4 -4 10 -22 14 -39z m337 -269 c272 -62 490 -230 627 -486 216 -402
336 -889 300 -1223 -15 -140 -35 -216 -87 -324 -36 -75 -59 -108 -116 -165
-41 -40 -99 -85 -133 -104 -62 -32 -92 -42 -63 -19 74 58 173 234 210 374 25
96 31 287 10 348 -30 89 -95 142 -161 131 -20 -3 -79 -25 -131 -50 -52 -24
-115 -49 -141 -55 -139 -33 -270 5 -439 130 -140 103 -283 149 -466 149 -87 0
-94 2 -87 18 22 52 43 156 43 222 2 245 -134 425 -269 355 l-28 -15 14 63 c8
34 16 66 17 71 2 5 37 8 79 7 91 -3 133 14 153 63 17 40 10 73 -23 109 -22 23
-34 27 -80 27 -63 0 -63 -4 1 109 97 172 213 246 432 281 80 12 248 4 338 -16z
m-755 -928 c-2 -23 -8 -31 -23 -31 -24 0 -34 48 -14 71 18 22 41 -2 37 -40z
m-44 -41 c8 -21 -3 -45 -20 -45 -9 0 -14 11 -14 30 0 32 23 42 34 15z m-147
-452 l-27 -28 0 55 0 55 27 -28 28 -27 -28 -27z m416 48 c18 -18 -42 -33 -116
-28 -82 5 -106 21 -56 36 41 13 157 7 172 -8z m304 -1838 c-3 -10 -5 -4 -5 12
0 17 2 24 5 18 2 -7 2 -21 0 -30z m69 -431 c85 -380 243 -655 477 -831 51 -39
57 -47 52 -71 -4 -18 1 -34 15 -52 22 -29 27 -68 8 -68 -7 0 -47 25 -88 56
-102 76 -210 127 -272 128 -56 1 -70 21 -43 63 16 23 21 25 65 20 27 -3 71
-17 99 -31 61 -31 81 -33 81 -6 0 25 -99 76 -166 86 -40 6 -42 7 -46 49 -3 27
-25 76 -57 133 -89 153 -141 361 -175 690 -22 208 -18 269 5 93 10 -79 31
-195 45 -259z m3873 -87 c89 -49 151 -144 173 -265 41 -234 -155 -467 -412
-489 -78 -7 -81 -6 -76 14 15 60 46 275 56 379 6 66 12 121 13 122 1 1 26 13
54 28 78 39 103 103 66 166 -19 33 -51 50 -93 50 -30 0 -40 14 -17 24 6 3 50
4 97 3 72 -3 93 -7 139 -32z m-194 -47 c52 -23 43 -92 -16 -121 l-34 -16 -3
61 c-4 90 2 99 53 76z m-3381 -786 c33 -16 87 -49 120 -73 l58 -44 -128 -3
c-113 -2 -131 0 -154 16 -36 27 -54 80 -40 116 9 26 14 28 46 23 20 -3 64 -19
98 -35z m1749 -3 c27 -7 66 -38 139 -110 l101 -101 -191 4 -191 3 -30 29 c-48
46 -42 129 12 158 50 26 105 33 160 17z m-1266 -118 c183 -92 183 -92 26 -89
-131 3 -132 3 -162 32 -25 24 -31 38 -31 73 0 39 2 43 24 43 14 0 78 -27 143
-59z"/>
<path d="M2217 3403 c-4 -3 -7 -19 -7 -35 0 -23 4 -28 25 -28 22 0 25 4 25 35
0 27 -4 35 -18 35 -10 0 -22 -3 -25 -7z"/>
<path d="M2217 3253 c-3 -10 -8 -40 -12 -68 -12 -93 -55 -238 -99 -329 -57
-121 -123 -206 -198 -261 -35 -24 -71 -50 -81 -57 -25 -19 -7 -43 26 -34 43
10 142 93 197 163 95 124 170 310 200 495 7 42 10 84 7 92 -8 21 -34 20 -40
-1z"/>
<path d="M2940 2971 c0 -5 -3 -16 -6 -25 -5 -13 2 -16 45 -16 48 0 51 2 51 25
0 23 -4 25 -45 25 -25 0 -45 -4 -45 -9z"/>
<path d="M2130 1520 c0 -15 7 -20 25 -20 18 0 25 5 25 20 0 15 -7 20 -25 20
-18 0 -25 -5 -25 -20z"/>
<path d="M3555 1200 c-16 -25 17 -41 79 -38 53 3 61 6 61 23 0 18 -8 20 -67
23 -40 2 -69 -1 -73 -8z"/>
<path d="M1950 290 c0 -20 27 -40 54 -40 21 0 20 30 -1 46 -27 20 -53 17 -53
-6z"/>
<path d="M3783 199 c-23 -23 -2 -39 47 -39 52 0 69 12 50 35 -15 18 -81 20
-97 4z"/>
<path d="M1157 4545 c-35 -36 -41 -70 -20 -113 27 -55 50 -62 201 -62 176 0
212 18 212 105 0 27 -8 44 -29 66 l-29 29 -155 0 c-152 0 -155 0 -180 -25z"/>
<path d="M1240 4286 c-72 -19 -138 -57 -189 -107 -97 -95 -136 -199 -129 -340
4 -76 9 -97 41 -162 131 -265 473 -323 680 -115 166 166 169 431 6 603 -106
112 -267 160 -409 121z m67 -97 c-197 -46 -307 -270 -223 -455 45 -98 116
-158 226 -190 l45 -14 -48 6 c-70 8 -130 37 -186 89 -182 170 -117 476 119
558 25 9 59 16 75 16 28 -1 28 -2 -8 -10z m223 -119 c57 -30 39 -100 -24 -100
-18 0 -39 6 -45 14 -20 24 -9 69 19 83 30 15 27 15 50 3z m-71 -109 c7 -13 6
-23 -2 -36 -26 -34 -89 -1 -74 39 9 23 63 21 76 -3z"/>
<path d="M1926 3608 c-20 -29 -20 -41 2 -68 36 -44 102 -20 102 36 0 52 -74
75 -104 32z"/>
</g>
</svg>
